# Tiled2Unity generated file. Do not modify by hand.
# Wavefront file for 'university_mesh_0005.obj'

# Vertices (Count = 68)
v 0 -240 0
v -48 -240 0
v -48 -192 0
v 0 -192 0
v -48 -240 0
v -96 -240 0
v -96 -192 0
v -48 -192 0
v -528 -240 0
v -576 -240 0
v -576 -192 0
v -528 -192 0
v -624 -240 0
v -672 -240 0
v -672 -192 0
v -624 -192 0
v -672 -240 0
v -720 -240 0
v -720 -192 0
v -672 -192 0
v -768 -240 0
v -816 -240 0
v -816 -192 0
v -768 -192 0
v -144 -288 0
v -192 -288 0
v -192 -240 0
v -144 -240 0
v -768 -288 0
v -816 -288 0
v -816 -240 0
v -768 -240 0
v -48 -336 0
v -96 -336 0
v -96 -288 0
v -48 -288 0
v -96 -336 0
v -144 -336 0
v -144 -288 0
v -96 -288 0
v -528 -384 0
v -576 -384 0
v -576 -336 0
v -528 -336 0
v -576 -384 0
v -624 -384 0
v -624 -336 0
v -576 -336 0
v -624 -384 0
v -672 -384 0
v -672 -336 0
v -624 -336 0
v -48 -528 0
v -96 -528 0
v -96 -480 0
v -48 -480 0
v -96 -528 0
v -144 -528 0
v -144 -480 0
v -96 -480 0
v -144 -528 0
v -192 -528 0
v -192 -480 0
v -144 -480 0
v -768 -576 0
v -816 -576 0
v -816 -528 0
v -768 -528 0

# Texture cooridinates (Count = 55)
vt 0.375 0.5625
vt 0.4375 0.5625
vt 0.4375 0.625
vt 0.375 0.625
vt 0.4375 0.875
vt 0.5 0.875
vt 0.5 0.9375
vt 0.4375 0.9375
vt 0.375 0.25
vt 0.4375 0.25
vt 0.4375 0.3125
vt 0.375 0.3125
vt 0.3125 0.9375
vt 0.375 0.9375
vt 0.375 1
vt 0.3125 1
vt 0.4375 0.375
vt 0.375 0.375
vt 0.4375 0.0625
vt 0.5 0.0625
vt 0.5 0.125
vt 0.4375 0.125
vt 0.375 0.6875
vt 0.4375 0.6875
vt 0.4375 0.75
vt 0.375 0.75
vt 0.375 0.1875
vt 0.4375 0.1875
vt 0.5 0.6875
vt 0.5 0.75
vt 0.1875 0.75
vt 0.25 0.75
vt 0.25 0.8125
vt 0.1875 0.8125
vt 0.25 0
vt 0.3125 0
vt 0.3125 0.0625
vt 0.25 0.0625
vt 0.3125 0.75
vt 0.375 0.8125
vt 0.3125 0.8125
vt 0 0.5
vt 0.0625 0.5
vt 0.0625 0.5625
vt 0 0.5625
vt 0.0625 0
vt 0.125 0
vt 0.125 0.0625
vt 0.0625 0.0625
vt 0.125 0.5
vt 0.1875 0.5
vt 0.1875 0.5625
vt 0.125 0.5625
vt 0.375 0.5
vt 0.4375 0.5

# Normal
vn 0 0 -1

# Mesh description
g university_mesh_0005

# Faces
f 1/1/1 2/2/1 3/3/1 4/4/1
f 5/5/1 6/6/1 7/7/1 8/8/1
f 9/9/1 10/10/1 11/11/1 12/12/1
f 13/13/1 14/14/1 15/15/1 16/16/1
f 17/12/1 18/11/1 19/17/1 20/18/1
f 21/19/1 22/20/1 23/21/1 24/22/1
f 25/23/1 26/24/1 27/25/1 28/26/1
f 29/23/1 30/24/1 31/25/1 32/26/1
f 33/27/1 34/28/1 35/10/1 36/9/1
f 37/24/1 38/29/1 39/30/1 40/25/1
f 41/31/1 42/32/1 43/33/1 44/34/1
f 45/35/1 46/36/1 47/37/1 48/38/1
f 49/39/1 50/26/1 51/40/1 52/41/1
f 53/42/1 54/43/1 55/44/1 56/45/1
f 57/46/1 58/47/1 59/48/1 60/49/1
f 61/50/1 62/51/1 63/52/1 64/53/1
f 65/54/1 66/55/1 67/2/1 68/1/1

